<?xml version="1.0" standalone="yes"?>
<svg xmlns="http://www.w3.org/2000/svg" width="247" height="47">
<path style="fill:#ffffff; stroke:none;" d="M0 0L0 47L247 47L247 0L0 0z"/>
<path style="fill:#abc9ce; stroke:none;" d="M21.6667 7.33333C21.2222 7.7778 22.2778 7.72221 22.3333 7.66667C22.7778 7.22223 21.7222 7.27777 21.6667 7.33333z"/>
<path style="fill:#96b1b5; stroke:none;" d="M41 7L42 8L41 7z"/>
<path style="fill:#cdd5d7; stroke:none;" d="M19 8L20 9L19 8z"/>
<path style="fill:#46676c; stroke:none;" d="M20 8L21 9L20 8z"/>
<path style="fill:#012d35; stroke:none;" d="M21 8C17.9592 9.80548 15.306 11.3077 13 14C15.945 15.8024 18.8725 17.5396 22 19C22 15.2998 22.4403 11.4324 21 8z"/>
<path style="fill:#1b7686; stroke:none;" d="M22 8L22 19L32 14C29.0605 11.248 25.7023 9.54975 22 8z"/>
<path style="fill:#5597a3; stroke:none;" d="M23 8L24 9L23 8z"/>
<path style="fill:#a2b3b6; stroke:none;" d="M39 8L40 9L39 8z"/>
<path style="fill:#08454f; stroke:none;" d="M40 8C40.8795 11.694 40.9975 15.2143 41 19C42.4215 15.6123 42.923 10.5542 40 8z"/>
<path style="fill:#1b7686; stroke:none;" d="M42 8L42 18C45.3287 16.7881 48.281 15.2745 51 13C48.0841 11.0769 45.208 9.38249 42 8z"/>
<path style="fill:#87b6be; stroke:none;" d="M43 8L44 9L43 8z"/>
<path style="fill:#698589; stroke:none;" d="M18 9L19 10L18 9z"/>
<path style="fill:#76abb5; stroke:none;" d="M25 9L26 10L25 9z"/>
<path style="fill:#bfcacc; stroke:none;" d="M37 9L38 10L37 9z"/>
<path style="fill:#3a5f65; stroke:none;" d="M38 9L39 10L38 9z"/>
<path style="fill:#012d35; stroke:none;" d="M32 13C34.7567 15.3169 37.9094 17.1384 41 19L41 9C37.7396 9.939 34.9319 11.2957 32 13z"/>
<path style="fill:#a2c6cc; stroke:none;" d="M45 9L46 10L45 9z"/>
<path style="fill:#8fa4a7; stroke:none;" d="M16 10L17 11L16 10z"/>
<path style="fill:#96bfc6; stroke:none;" d="M27 10L28 11L27 10z"/>
<path style="fill:#627e83; stroke:none;" d="M36 10L37 11L36 10z"/>
<path style="fill:#bdd6db; stroke:none;" d="M47 10L48 11L47 10z"/>
<path style="fill:#b8c5c7; stroke:none;" d="M14 11L15 12L14 11z"/>
<path style="fill:#b9d4d9; stroke:none;" d="M29 11L30 12L29 11z"/>
<path style="fill:#8a9fa3; stroke:none;" d="M34 11L35 12L34 11z"/>
<path style="fill:#70a8b2; stroke:none;" d="M48 11L49 12L48 11z"/>
<path style="fill:#527277; stroke:none;" d="M13 12L14 13L13 12z"/>
<path style="fill:#66a2ac; stroke:none;" d="M30 12L31 13L30 12z"/>
<path style="fill:#a4b5b8; stroke:none;" d="M32 12L33 13L32 12z"/>
<path style="fill:#91bbc3; stroke:none;" d="M50 12L51 13L50 12z"/>
<path style="fill:#eff2f2; stroke:none;" d="M11 13L11 36C13.2838 30.5574 13.2838 18.4426 11 13z"/>
<path style="fill:#405658; stroke:none;" d="M12 13C12 16.7059 11.0486 21.421 14 24C13.1344 20.3643 13.4287 16.4035 12 13z"/>
<path style="fill:#88aeb3; stroke:none;" d="M51 13L51 36C53.2838 30.5574 53.2838 18.4426 51 13z"/>
<path style="fill:#00181b; stroke:none;" d="M13 14L13 23C16.4487 21.9752 18.6544 20.7301 21 18L13 14z"/>
<path style="fill:#0b5c66; stroke:none;" d="M23 18C25.5476 20.9725 28.403 22.4917 32 24L32 14C28.7696 14.9493 25.9781 16.4402 23 18z"/>
<path style="fill:#00181b; stroke:none;" d="M32 14L32 24L40 20C38.1505 16.4411 35.8046 15.1332 32 14z"/>
<path style="fill:#0b5c66; stroke:none;" d="M42 18C44.5494 20.9945 47.3129 22.6474 51 24L51 14C47.7696 14.9493 44.9781 16.4402 42 18z"/>
<path style="fill:#e6e9e9; stroke:none;" d="M91.6667 17.3333C91.2222 17.7778 92.2778 17.7222 92.3333 17.6667C92.7778 17.2222 91.7222 17.2778 91.6667 17.3333z"/>
<path style="fill:#a4b1b2; stroke:none;" d="M109 17C114.959 19.5005 123.564 18 130 18C124.041 15.4995 115.436 17 109 17M144 17C149.469 19.295 157.099 18 163 18C157.531 15.705 149.901 17 144 17M180 17C185.959 19.5005 194.564 18 201 18C195.041 15.4995 186.436 17 180 17z"/>
<path style="fill:#839395; stroke:none;" d="M72 18L73 19L72 18z"/>
<path style="fill:#142e31; stroke:none;" d="M73 18L73 28C74.3457 24.793 74.3457 21.207 73 18z"/>
<path style="fill:#edefef; stroke:none;" d="M74 18C74.0026 21.3056 73.3988 24.727 76 27C75.2818 23.9926 75.1945 20.8195 74 18z"/>
<path style="fill:#9fabad; stroke:none;" d="M91 18L91 28C92.3457 24.793 92.3457 21.207 91 18z"/>
<path style="fill:#344c4e; stroke:none;" d="M92 18L93 19L92 18z"/>
<path style="fill:#b0b9bb; stroke:none;" d="M93 18L94 19L93 18z"/>
<path style="fill:#b7c0c0; stroke:none;" d="M107 18L108 19L107 18z"/>
<path style="fill:#011a1d; stroke:none;" d="M130 31L130 29L109 29L109 20L130 20L130 18C124.324 18 114.454 16.076 109.318 18.6034C106.164 20.1555 105.95 27.8707 108.603 29.9722C110.281 31.3013 113.008 30.9855 115 30.9992L130 31z"/>
<path style="fill:#e2e6e6; stroke:none;" d="M130 18L130 21C130.696 19.4463 130.696 19.5537 130 18z"/>
<path style="fill:#566b6d; stroke:none;" d="M143 18L144 19L143 18z"/>
<path style="fill:#00181b; stroke:none;" d="M163 26L163 28C156.792 29.4779 150.346 29 144 29L144 31C149.424 31 155.614 31.8351 160.941 30.7716C163.557 30.2494 166.276 27.3125 163.392 25.0239C159.383 21.8425 149.095 24.2131 144 23L144 21C150.208 19.5221 156.654 20 163 20L163 18C157.576 18 151.386 17.1649 146.059 18.2284C143.443 18.7506 140.724 21.6875 143.608 23.9761C147.617 27.1575 157.905 24.7869 163 26z"/>
<path style="fill:#284044; stroke:none;" d="M163.333 18.6667C163.278 18.7222 163.222 19.7778 163.667 19.3333C163.722 19.2778 163.778 18.2222 163.333 18.6667z"/>
<path style="fill:#869597; stroke:none;" d="M178 18L179 19L178 18z"/>
<path style="fill:#051e21; stroke:none;" d="M200 31L200 29C194.742 29 188.144 30.0793 183.059 28.6821C180.584 28.0023 178.753 25.8086 179.662 23.1435C181.538 17.6432 195.427 20 200 20L200 18C194.571 18 185.236 16.1833 180.318 18.6034C177.164 20.1555 176.95 27.8707 179.603 29.9722C183.598 33.136 195.059 31 200 31z"/>
<path style="fill:#5a6e70; stroke:none;" d="M200 18L200 21C200.696 19.4463 200.696 19.5537 200 18z"/>
<path style="fill:#b5bebf; stroke:none;" d="M213 18L214 19L213 18z"/>
<path style="fill:#193034; stroke:none;" d="M214.667 18.3333C214.222 18.7778 215.278 18.7222 215.333 18.6667C215.778 18.2222 214.722 18.2778 214.667 18.3333z"/>
<path style="fill:#4b6164; stroke:none;" d="M216 18L217 19L216 18z"/>
<path style="fill:#eaeded; stroke:none;" d="M232 18C231.974 21.1217 231.724 23.9605 231 27C233.641 24.6925 233.296 21.0891 232 18z"/>
<path style="fill:#112d31; stroke:none;" d="M233 18L233 28C234.346 24.793 234.346 21.207 233 18z"/>
<path style="fill:#7a8b8d; stroke:none;" d="M234 18L235 19L234 18z"/>
<path style="fill:#104f5d; stroke:none;" d="M20 19L21 20L20 19z"/>
<path style="fill:#3ec1e2; stroke:none;" d="M21 19C18.1218 21.0493 15.2584 22.6357 12 24C14.9939 26.6012 18.362 28.4322 22 30C22 26.2998 22.4403 22.4324 21 19z"/>
<path style="fill:#b0d0d6; stroke:none;" d="M22 19L23 20L22 19z"/>
<path style="fill:#62959b; stroke:none;" d="M23 19L24 20L23 19z"/>
<path style="fill:#7a8a8d; stroke:none;" d="M40 19L41 20L40 19z"/>
<path style="fill:#bde9f5; stroke:none;" d="M41 19L41 30C42.4309 26.59 42.4309 22.41 41 19z"/>
<path style="fill:#3ec1e2; stroke:none;" d="M42 19L42 30C45.1275 28.5396 48.055 26.8024 51 25C48.3131 22.4756 45.2509 20.7312 42 19z"/>
<path style="fill:#dfe3e3; stroke:none;" d="M70 19L70 30C71.4309 26.59 71.4309 22.41 70 19z"/>
<path style="fill:#44595c; stroke:none;" d="M71 19L72 20L71 19z"/>
<path style="fill:#01191c; stroke:none;" d="M72 19L72 30C75.669 29.6242 79.3835 27.234 83 27.4514C86.7479 27.6767 90.1059 29.7976 94 30L94 19L92 19L92 28C83.9695 24.2737 81.1085 24.6295 73 28C72.9983 24.8741 73.2129 21.8897 72 19z"/>
<path style="fill:#627476; stroke:none;" d="M94 19L94 30C95.4309 26.59 95.4309 22.41 94 19z"/>
<path style="fill:#738284; stroke:none;" d="M106 19L106 30C107.431 26.59 107.431 22.41 106 19z"/>
<path style="fill:#a9b4b4; stroke:none;" d="M141 19L141 24C141.83 21.9695 141.83 21.0305 141 19z"/>
<path style="fill:#a1aeaf; stroke:none;" d="M164 19L165 20L164 19z"/>
<path style="fill:#f0f2f2; stroke:none;" d="M176 19L176 30C177.431 26.59 177.431 22.41 176 19z"/>
<path style="fill:#2c4244; stroke:none;" d="M177 19L177 30C178.431 26.59 178.431 22.41 177 19z"/>
<path style="fill:#869597; stroke:none;" d="M212 19L213 20L212 19z"/>
<path style="fill:#011a1d; stroke:none;" d="M213 19C213 23.1129 212.829 27.0398 214 31C215.327 27.8367 215 24.4144 215 21C221.099 24.5967 227.338 28.5755 234 31C235.171 27.0398 235 23.1129 235 19C233.787 21.8897 234.002 24.8741 234 28C226.906 25.0308 220.876 19.4259 213 19z"/>
<path style="fill:#7c8c8e; stroke:none;" d="M218 19L219 20L218 19z"/>
<path style="fill:#152f32; stroke:none;" d="M235 19L235 30C236.431 26.59 236.431 22.41 235 19z"/>
<path style="fill:#dce1e1; stroke:none;" d="M236 19L236 30C237.431 26.59 237.431 22.41 236 19z"/>
<path style="fill:#228398; stroke:none;" d="M19 20L20 21L19 20z"/>
<path style="fill:#e7f7fb; stroke:none;" d="M22 20L22 30C23.3457 26.793 23.3457 23.207 22 20z"/>
<path style="fill:#ffffff; stroke:none;" d="M23 20L23 29C25.7873 27.8393 28.3921 26.522 31 25C28.579 22.7324 26.043 21.3147 23 20z"/>
<path style="fill:#aec7ca; stroke:none;" d="M24 20L25 21L24 20z"/>
<path style="fill:#4a6165; stroke:none;" d="M38 20L39 21L38 20z"/>
<path style="fill:#ffffff; stroke:none;" d="M33 24C35.3832 26.5731 37.6599 27.9327 41 29L41 20C38.1263 21.0453 35.6179 22.4144 33 24z"/>
<path style="fill:#152d31; stroke:none;" d="M71 20L71 30C72.3457 26.793 72.3457 23.207 71 20z"/>
<path style="fill:#3e575a; stroke:none;" d="M109 20C114.959 22.5005 123.564 21 130 21C124.041 18.4995 115.436 20 109 20M145 20C150.222 22.1914 157.368 21 163 21C157.778 18.8086 150.632 20 145 20M180 20C185.715 22.398 193.831 21 200 21C194.285 18.602 186.169 20 180 20z"/>
<path style="fill:#566b6d; stroke:none;" d="M212 20L212 30C213.346 26.793 213.346 23.207 212 20z"/>
<path style="fill:#a7b2b3; stroke:none;" d="M220 20L221 21L220 20z"/>
<path style="fill:#1d7689; stroke:none;" d="M17 21L18 22L17 21z"/>
<path style="fill:#98b8bd; stroke:none;" d="M26 21L27 22L26 21z"/>
<path style="fill:#c3cacc; stroke:none;" d="M37 21L38 22L37 21z"/>
<path style="fill:#9ca8aa; stroke:none;" d="M109 21C109.406 23.0924 109.217 23.0198 111 24C110.309 22.6116 110.015 22.1393 109 21z"/>
<path style="fill:#3c5456; stroke:none;" d="M144.333 21.6667C144.278 21.7222 144.222 22.7778 144.667 22.3333C144.722 22.2778 144.778 21.2222 144.333 21.6667z"/>
<path style="fill:#1b3134; stroke:none;" d="M179 21L179 28C180.059 25.4657 180.059 23.5343 179 21z"/>
<path style="fill:#e0e4e4; stroke:none;" d="M180 21L180 24C180.696 22.4463 180.696 22.5537 180 21z"/>
<path style="fill:#8e9c9e; stroke:none;" d="M215 21L215 31C216.346 27.793 216.346 24.207 215 21z"/>
<path style="fill:#385053; stroke:none;" d="M221 21L222 22L221 21z"/>
<path style="fill:#cad1d2; stroke:none;" d="M222 21L223 22L222 21z"/>
<path style="fill:#145c6c; stroke:none;" d="M15 22L16 23L15 22z"/>
<path style="fill:#78a3a8; stroke:none;" d="M28 22L29 23L28 22z"/>
<path style="fill:#94a2a4; stroke:none;" d="M35 22L36 23L35 22z"/>
<path style="fill:#f1f3f3; stroke:none;" d="M112 22C117.222 24.1914 124.368 23 130 23C124.778 20.8086 117.632 22 112 22M145 22C149.974 24.0872 156.638 23 162 23C157.026 20.9128 150.362 22 145 22M183 22C188.222 24.1914 195.368 23 201 23C195.778 20.8086 188.632 22 183 22z"/>
<path style="fill:#a2aeaf; stroke:none;" d="M217 22L218 23L217 22z"/>
<path style="fill:#5d7274; stroke:none;" d="M223 22L224 23L223 22z"/>
<path style="fill:#bfd3d6; stroke:none;" d="M29 23L30 24L29 23z"/>
<path style="fill:#538b92; stroke:none;" d="M30 23L31 24L30 23z"/>
<path style="fill:#677b7d; stroke:none;" d="M33 23L34 24L33 23z"/>
<path style="fill:#919fa1; stroke:none;" d="M81 23L82 24L81 23z"/>
<path style="fill:#405659; stroke:none;" d="M82.6667 23.3333C82.2222 23.7778 83.2778 23.7222 83.3333 23.6667C83.7778 23.2222 82.7222 23.2778 82.6667 23.3333z"/>
<path style="fill:#b0babb; stroke:none;" d="M84 23L85 24L84 23z"/>
<path style="fill:#526669; stroke:none;" d="M111 23L112 24L111 23z"/>
<path style="fill:#1d383a; stroke:none;" d="M112 23C117.483 25.3008 124.072 22.2664 129 26C130.788 21.2559 115.252 23 112 23z"/>
<path style="fill:#e2e5e6; stroke:none;" d="M130 23L130 26C130.696 24.4463 130.696 24.5537 130 23z"/>
<path style="fill:#1d383a; stroke:none;" d="M145 23C150.222 25.1914 157.368 24 163 24C157.778 21.8086 150.632 23 145 23z"/>
<path style="fill:#a5b1b2; stroke:none;" d="M163 23L164 24L163 23z"/>
<path style="fill:#9daaab; stroke:none;" d="M181 23L182 24L181 23z"/>
<path style="fill:#1d383a; stroke:none;" d="M182 23C187.222 25.1914 194.368 24 200 24C194.778 21.8086 187.632 23 182 23z"/>
<path style="fill:#5a6d6f; stroke:none;" d="M200 23L200 26C200.696 24.4463 200.696 24.5537 200 23z"/>
<path style="fill:#768789; stroke:none;" d="M219 23L220 24L219 23z"/>
<path style="fill:#869597; stroke:none;" d="M225 23L226 24L225 23z"/>
<path style="fill:#a9b7b9; stroke:none;" d="M31.6667 24.3333C31.2222 24.7778 32.2778 24.7222 32.3333 24.6667C32.7778 24.2222 31.7222 24.2778 31.6667 24.3333z"/>
<path style="fill:#bec6c7; stroke:none;" d="M79 24L80 25L79 24z"/>
<path style="fill:#374e51; stroke:none;" d="M80 24L81 25L80 24z"/>
<path style="fill:#516769; stroke:none;" d="M85 24L86 25L85 24z"/>
<path style="fill:#4e6668; stroke:none;" d="M109 24L110 25L109 24z"/>
<path style="fill:#00181b; stroke:none;" d="M110 24C115.469 26.295 123.099 25 129 25C123.531 22.705 115.901 24 110 24z"/>
<path style="fill:#40575a; stroke:none;" d="M142 24L143 25L142 24z"/>
<path style="fill:#496163; stroke:none;" d="M164 24L165 25L164 24z"/>
<path style="fill:#486164; stroke:none;" d="M180 24L181 25L180 24z"/>
<path style="fill:#00181b; stroke:none;" d="M181 24C186.469 26.295 194.099 25 200 25C194.531 22.705 186.901 24 181 24z"/>
<path style="fill:#485f62; stroke:none;" d="M221 24L222 25L221 24z"/>
<path style="fill:#2c4649; stroke:none;" d="M226 24L227 25L226 24z"/>
<path style="fill:#bcc5c5; stroke:none;" d="M227 24L228 25L227 24z"/>
<path style="fill:#405658; stroke:none;" d="M12 25L12 36C13.4287 32.5965 13.1344 28.6357 14 25L12 25z"/>
<path style="fill:#64969c; stroke:none;" d="M30 25L31 26L30 25z"/>
<path style="fill:#0b5c66; stroke:none;" d="M23 31C25.955 32.7837 28.6316 34.2297 32 35C32.0095 31.5448 32.198 28.3679 33 25C28.9118 26.1806 25.7816 27.7555 23 31z"/>
<path style="fill:#7a8b8d; stroke:none;" d="M33 25L34 26L33 25z"/>
<path style="fill:#0b5c66; stroke:none;" d="M50 25L43 29C44.8495 32.5589 47.1954 33.8668 51 35C50.9996 31.5856 51.3274 28.1633 50 25z"/>
<path style="fill:#d0d6d6; stroke:none;" d="M77 25L78 26L77 25z"/>
<path style="fill:#5a6f72; stroke:none;" d="M78 25L79 26L78 25z"/>
<path style="fill:#839294; stroke:none;" d="M87 25L88 26L87 25z"/>
<path style="fill:#9ca8aa; stroke:none;" d="M109 25L109 28C110.015 26.8606 110.309 26.3884 111 25L109 25z"/>
<path style="fill:#142b2f; stroke:none;" d="M111 25C116.222 27.1914 123.368 26 129 26C123.778 23.8086 116.632 25 111 25z"/>
<path style="fill:#9eabac; stroke:none;" d="M143 25L144 26L143 25z"/>
<path style="fill:#142b2f; stroke:none;" d="M144 25C149.222 27.1914 156.368 26 162 26C156.778 23.8086 149.632 25 144 25z"/>
<path style="fill:#b5bfc0; stroke:none;" d="M165 25L165 30C165.83 27.9695 165.83 27.0305 165 25z"/>
<path style="fill:#e0e4e4; stroke:none;" d="M180 25L180 28C180.696 26.4463 180.696 26.5537 180 25z"/>
<path style="fill:#8b9a9c; stroke:none;" d="M181 25L182 26L181 25z"/>
<path style="fill:#142b2f; stroke:none;" d="M182 25C187.222 27.1914 194.368 26 200 26C194.778 23.8086 187.632 25 182 25z"/>
<path style="fill:#a9b4b5; stroke:none;" d="M222 25L223 26L222 25z"/>
<path style="fill:#576b6d; stroke:none;" d="M228 25L229 26L228 25z"/>
<path style="fill:#00181b; stroke:none;" d="M13 26L13 35C15.7873 33.8393 18.3921 32.522 21 31C18.6544 28.2699 16.4487 27.0248 13 26z"/>
<path style="fill:#1d7387; stroke:none;" d="M15 26L16 27L15 26z"/>
<path style="fill:#8bb0b5; stroke:none;" d="M28 26L29 27L28 26z"/>
<path style="fill:#00181b; stroke:none;" d="M32 26L32 35C35.8046 33.8668 38.1505 32.5589 40 29L32 26z"/>
<path style="fill:#294246; stroke:none;" d="M34 26L35 27L34 26z"/>
<path style="fill:#a7b1b3; stroke:none;" d="M35 26L36 27L35 26z"/>
<path style="fill:#859395; stroke:none;" d="M76 26L77 27L76 26z"/>
<path style="fill:#506567; stroke:none;" d="M82.6667 26.3333C82.2222 26.7778 83.2778 26.7222 83.3333 26.6667C83.7778 26.2222 82.7222 26.2778 82.6667 26.3333z"/>
<path style="fill:#2c4548; stroke:none;" d="M88 26L89 27L88 26z"/>
<path style="fill:#a9b5b6; stroke:none;" d="M89 26L90 27L89 26z"/>
<path style="fill:#e2e7e7; stroke:none;" d="M112 26C117.222 28.1914 124.368 27 130 27C124.778 24.8086 117.632 26 112 26M145 26C149.974 28.0872 156.638 27 162 27C157.026 24.9128 150.362 26 145 26z"/>
<path style="fill:#425b5d; stroke:none;" d="M162.333 26.6667C162.278 26.7222 162.222 27.7778 162.667 27.3333C162.722 27.2778 162.778 26.2222 162.333 26.6667z"/>
<path style="fill:#e2e7e7; stroke:none;" d="M182 26C187.469 28.295 195.099 27 201 27C195.531 24.705 187.901 26 182 26z"/>
<path style="fill:#7e8f92; stroke:none;" d="M224 26L225 27L224 26z"/>
<path style="fill:#7d8d8f; stroke:none;" d="M230 26L231 27L230 26z"/>
<path style="fill:#aec7cb; stroke:none;" d="M26 27L27 28L26 27z"/>
<path style="fill:#354e50; stroke:none;" d="M36 27L37 28L36 27z"/>
<path style="fill:#a3aeb0; stroke:none;" d="M74 27L75 28L74 27z"/>
<path style="fill:#4b6365; stroke:none;" d="M80 27L81 28L80 27z"/>
<path style="fill:#c0c9c9; stroke:none;" d="M84 27L85 28L84 27z"/>
<path style="fill:#3f5759; stroke:none;" d="M90 27L91 28L90 27z"/>
<path style="fill:#556b6e; stroke:none;" d="M226 27L227 28L226 27z"/>
<path style="fill:#96a4a5; stroke:none;" d="M232 27L233 28L232 27z"/>
<path style="fill:#c1d4d7; stroke:none;" d="M24 28L25 29L24 28z"/>
<path style="fill:#5e7375; stroke:none;" d="M38 28L39 29L38 28z"/>
<path style="fill:#395053; stroke:none;" d="M78 28L79 29L78 28z"/>
<path style="fill:#bdc5c6; stroke:none;" d="M79 28L80 29L79 28z"/>
<path style="fill:#9eaaac; stroke:none;" d="M86 28L87 29L86 28z"/>
<path style="fill:#586e70; stroke:none;" d="M109 28C114.959 30.5005 123.564 29 130 29C124.041 26.4995 115.436 28 109 28z"/>
<path style="fill:#e3e6e6; stroke:none;" d="M130 28L130 31C130.696 29.4463 130.696 29.5537 130 28z"/>
<path style="fill:#586e70; stroke:none;" d="M144 28C149.222 30.1914 156.368 29 162 29C156.778 26.8086 149.632 28 144 28M180 28C185.715 30.398 193.831 29 200 29C194.285 26.602 186.169 28 180 28z"/>
<path style="fill:#96a3a5; stroke:none;" d="M200 28L201 29L200 28z"/>
<path style="fill:#c3cbcc; stroke:none;" d="M227 28L228 29L227 28z"/>
<path style="fill:#445a5d; stroke:none;" d="M228 28L229 29L228 28z"/>
<path style="fill:#196374; stroke:none;" d="M20 29L21 30L20 29z"/>
<path style="fill:#719fa6; stroke:none;" d="M23 29L24 30L23 29z"/>
<path style="fill:#8a999c; stroke:none;" d="M40 29L41 30L40 29z"/>
<path style="fill:#2e4548; stroke:none;" d="M76 29L77 30L76 29z"/>
<path style="fill:#8f9e9f; stroke:none;" d="M77 29L78 30L77 29z"/>
<path style="fill:#728385; stroke:none;" d="M88 29L89 30L88 29z"/>
<path style="fill:#ced4d5; stroke:none;" d="M142.333 29.6667C142.278 29.7222 142.222 30.7778 142.667 30.3333C142.722 30.2778 142.778 29.2222 142.333 29.6667z"/>
<path style="fill:#435a5c; stroke:none;" d="M143.333 29.6667C143.278 29.7222 143.222 30.7778 143.667 30.3333C143.722 30.2778 143.778 29.2222 143.333 29.6667z"/>
<path style="fill:#5d7173; stroke:none;" d="M200.333 29.6667C200.278 29.7222 200.222 30.7778 200.667 30.3333C200.722 30.2778 200.778 29.2222 200.333 29.6667z"/>
<path style="fill:#97a4a6; stroke:none;" d="M229 29L230 30L229 29z"/>
<path style="fill:#32494c; stroke:none;" d="M230 29L231 30L230 29z"/>
<path style="fill:#012d35; stroke:none;" d="M21 30L13 35C15.5494 37.9945 18.3129 39.6474 22 41C22 37.2998 22.4403 33.4324 21 30z"/>
<path style="fill:#1b7686; stroke:none;" d="M22 30L22 41C25.5368 39.7052 28.6776 37.7665 32 36C28.886 33.6794 25.4305 31.8241 22 30z"/>
<path style="fill:#012d35; stroke:none;" d="M40 30L32 36C34.955 37.7837 37.6316 39.2297 41 40C40.9996 36.5856 41.3274 33.1633 40 30z"/>
<path style="fill:#08454f; stroke:none;" d="M41 30C40.9975 33.7857 40.8795 37.306 40 41C42.923 38.4458 42.4215 33.3877 41 30z"/>
<path style="fill:#1b7686; stroke:none;" d="M42 30L42 41C45.208 39.6175 48.0841 37.9231 51 36C48.2433 33.6831 45.0907 31.8616 42 30z"/>
<path style="fill:#6d7f82; stroke:none;" d="M72 30L73 31L72 30z"/>
<path style="fill:#1a3134; stroke:none;" d="M73.6667 30.3333C73.2222 30.7778 74.2778 30.7222 74.3333 30.6667C74.7778 30.2222 73.7222 30.2778 73.6667 30.3333z"/>
<path style="fill:#687b7d; stroke:none;" d="M75 30L76 31L75 30z"/>
<path style="fill:#d0d6d6; stroke:none;" d="M89 30L90 31L89 30z"/>
<path style="fill:#425a5c; stroke:none;" d="M90 30L91 31L90 30z"/>
<path style="fill:#253d40; stroke:none;" d="M91.6667 30.3333C91.2222 30.7778 92.2778 30.7222 92.3333 30.6667C92.7778 30.2222 91.7222 30.2778 91.6667 30.3333z"/>
<path style="fill:#9aa6a8; stroke:none;" d="M93 30L94 31L93 30z"/>
<path style="fill:#a0acad; stroke:none;" d="M107 30L108 31L107 30z"/>
<path style="fill:#3f5659; stroke:none;" d="M163 30L164 31L163 30z"/>
<path style="fill:#c2c9ca; stroke:none;" d="M164 30L165 31L164 30z"/>
<path style="fill:#6f8184; stroke:none;" d="M178 30L179 31L178 30z"/>
<path style="fill:#a0acad; stroke:none;" d="M213 30L214 31L213 30z"/>
<path style="fill:#6f8283; stroke:none;" d="M231 30L232 31L231 30z"/>
<path style="fill:#627678; stroke:none;" d="M234 30L235 31L234 30z"/>
<path style="fill:#c8d0d1; stroke:none;" d="M73.6667 31.3333C73.2222 31.7778 74.2778 31.7222 74.3333 31.6667C74.7778 31.2222 73.7222 31.2778 73.6667 31.3333z"/>
<path style="fill:#dadfe0; stroke:none;" d="M91.6667 31.3333C91.2222 31.7778 92.2778 31.7222 92.3333 31.6667C92.7778 31.2222 91.7222 31.2778 91.6667 31.3333z"/>
<path style="fill:#91a0a1; stroke:none;" d="M109 31C114.959 33.5005 123.564 32 130 32C124.041 29.4995 115.436 31 109 31M144 31C149.469 33.295 157.099 32 163 32C157.531 29.705 149.901 31 144 31z"/>
<path style="fill:#cbd2d3; stroke:none;" d="M179 31L180 32L179 31z"/>
<path style="fill:#91a0a1; stroke:none;" d="M180 31C185.959 33.5005 194.564 32 201 32C195.041 29.4995 186.436 31 180 31z"/>
<path style="fill:#dce0e0; stroke:none;" d="M214.667 31.3333C214.222 31.7777 215.278 31.7222 215.333 31.6667C215.778 31.2222 214.722 31.2778 214.667 31.3333z"/>
<path style="fill:#c6cdcd; stroke:none;" d="M232.667 31.3333C232.222 31.7778 233.278 31.7222 233.333 31.6667C233.778 31.2222 232.722 31.2778 232.667 31.3333z"/>
<path style="fill:#c9d2d3; stroke:none;" d="M12 36L13 37L12 36z"/>
<path style="fill:#43666b; stroke:none;" d="M13 36L14 37L13 36z"/>
<path style="fill:#599aa6; stroke:none;" d="M30 36L31 37L30 36z"/>
<path style="fill:#c1d6d9; stroke:none;" d="M31 36L32 37L31 36z"/>
<path style="fill:#8fa4a7; stroke:none;" d="M32 36L33 37L32 36z"/>
<path style="fill:#7eb0b8; stroke:none;" d="M50 36L51 37L50 36z"/>
<path style="fill:#a5b5b8; stroke:none;" d="M14 37L15 38L14 37z"/>
<path style="fill:#a9cad0; stroke:none;" d="M29 37L30 38L29 37z"/>
<path style="fill:#758e91; stroke:none;" d="M34 37L35 38L34 37z"/>
<path style="fill:#5d9da8; stroke:none;" d="M48 37L49 38L48 37z"/>
<path style="fill:#7c9498; stroke:none;" d="M16 38L17 39L16 38z"/>
<path style="fill:#86b5bd; stroke:none;" d="M27 38L28 39L27 38z"/>
<path style="fill:#c5cfd1; stroke:none;" d="M35 38L36 39L35 38z"/>
<path style="fill:#517076; stroke:none;" d="M36 38L37 39L36 38z"/>
<path style="fill:#aecdd3; stroke:none;" d="M47 38L48 39L47 38z"/>
<path style="fill:#57767c; stroke:none;" d="M18 39L19 40L18 39z"/>
<path style="fill:#66a2ac; stroke:none;" d="M25 39L26 40L25 39z"/>
<path style="fill:#abbabc; stroke:none;" d="M37 39L38 40L37 39z"/>
<path style="fill:#8ebac1; stroke:none;" d="M45 39L46 40L45 39z"/>
<path style="fill:#bfcacc; stroke:none;" d="M19 40L20 41L19 40z"/>
<path style="fill:#8ea1a5; stroke:none;" d="M39 40L40 41L39 40z"/>
<path style="fill:#74aab3; stroke:none;" d="M43 40L44 41L43 40z"/>
<path style="fill:#9cbfc6; stroke:none;" d="M21.6667 41.3333C21.2222 41.7778 22.2778 41.7222 22.3333 41.6667C22.7778 41.2222 21.7222 41.2778 21.6667 41.3333z"/>
<path style="fill:#ccd6d7; stroke:none;" d="M40 41L41 42L40 41z"/>
<path style="fill:#86a4a9; stroke:none;" d="M41 41L42 42L41 41z"/>
</svg>
